<?xml version="1.0" encoding="UTF-8" standalone="no"?>
<!-- Created with Inkscape (http://www.inkscape.org/) -->
<svg
   xmlns:dc="http://purl.org/dc/elements/1.1/"
   xmlns:cc="http://web.resource.org/cc/"
   xmlns:rdf="http://www.w3.org/1999/02/22-rdf-syntax-ns#"
   xmlns:svg="http://www.w3.org/2000/svg"
   xmlns="http://www.w3.org/2000/svg"
   xmlns:sodipodi="http://sodipodi.sourceforge.net/DTD/sodipodi-0.dtd"
   xmlns:inkscape="http://www.inkscape.org/namespaces/inkscape"
   id="svg2011"
   sodipodi:version="0.32"
   inkscape:version="0.44.1"
   width="397"
   height="267"
   version="1.0"
   sodipodi:docbase="E:\SVG"
   sodipodi:docname="Fedora_hat.svg">
  <metadata
     id="metadata2016">
    <rdf:RDF>
      <cc:Work
         rdf:about="">
        <dc:format>image/svg+xml</dc:format>
        <dc:type
           rdf:resource="http://purl.org/dc/dcmitype/StillImage" />
      </cc:Work>
    </rdf:RDF>
  </metadata>
  <defs
     id="defs2014" />
  <sodipodi:namedview
     inkscape:window-height="721"
     inkscape:window-width="1024"
     inkscape:pageshadow="2"
     inkscape:pageopacity="0.0"
     guidetolerance="10.0"
     gridtolerance="10.0"
     objecttolerance="10.0"
     borderopacity="1.0"
     bordercolor="#666666"
     pagecolor="#ffffff"
     id="base"
     showguides="true"
     inkscape:guide-bbox="true"
     inkscape:zoom="1.4269663"
     inkscape:cx="198.5"
     inkscape:cy="133.5"
     inkscape:window-x="-4"
     inkscape:window-y="-4"
     inkscape:current-layer="svg2011" />
  <g
     id="g4697">
    <path
       id="path2036"
       d="M 23.5,264.61023 C 16.837636,262.51827 5.0822022,254.08145 2.9174819,249.83825 C -1.0317598,242.0971 0.85024223,228.93632 7.8278804,215.5 C 14.426466,202.79359 36.432255,183.53375 57.75,171.8073 C 61.7375,169.61386 65,167.53851 65,167.19542 C 65,166.85233 63.216567,163.14364 61.036816,158.95388 C 51.628942,140.87076 45.569957,117.59173 46.183858,101.88782 C 46.523938,93.188413 46.915722,91.555118 50.309641,84.68799 C 55.021809,75.153565 61.968366,68.10144 77.089632,57.50102 C 96.605924,43.819566 116.42239,34.589027 162,17.949655 C 173.825,13.632611 186.69897,8.7727039 190.60882,7.1498626 C 207.1679,0.27676665 221.61971,-0.5269495 236.83093,4.5792883 C 256.67212,11.239757 280.08302,30.216242 291.25232,48.692374 C 301.84132,66.208572 314.14465,95.998521 319.64355,117.43579 C 321.06341,122.97111 322.68192,128.06533 323.24023,128.7563 C 323.79854,129.44726 330.7654,133.15974 338.72214,137.00625 C 356.99821,145.84141 365.36266,151.4583 373.97233,160.67745 C 380.70739,167.88929 392.61397,186.26269 394.85311,192.89922 C 398.02511,202.30061 395.10952,208.99909 386.76713,211.47652 C 380.76402,213.25925 344.95371,213.48823 319,211.90984 C 280.88655,209.59195 273.98305,209.60021 262.86115,211.97705 C 257.16252,213.1949 250.925,214.87833 249,215.71803 C 234.74939,221.9342 190.12906,238.31562 172.4731,243.81327 C 136.30643,255.07474 109.04854,261.29069 81.5,264.55897 C 66.328986,266.35882 29.173419,266.39166 23.5,264.61023 z "
       style="fill:black;stroke:none;stroke-opacity:1" />
    <path
       d="M 74.5,259.95501 C 118.03329,255.72999 169.56836,241.49265 235.33354,215.52232 C 263.07953,204.56557 273.68093,202.96605 301.5,205.53921 C 314.53212,206.74463 330.6046,207.32857 352.67012,207.39832 C 383.86217,207.49691 384.92629,207.43619 387.67012,205.4011 C 390.85351,203.04001 391.68495,199.40361 390.0885,194.82402 C 387.5898,187.65626 376.45123,170.69751 369.63054,163.67628 C 360.4546,154.23054 355.85811,151.15795 337,141.86389 C 323.53826,135.22939 321.41379,134.45097 320.8444,135.94434 C 319.84679,138.56088 311.46713,145.62638 302.03245,151.8061 C 276.19407,168.73022 202.44891,196.17769 146,209.88037 C 121.58885,215.80604 105.38548,218.64392 87.506323,220.12501 C 77.149507,220.98296 73.223719,221.67937 72.400931,222.8046 C 71.72837,223.72438 70.601045,224.06088 69.54712,223.65646 C 68.041606,223.07874 67.897377,222.14 68.48507,216.74398 C 68.859095,213.30979 69.802965,207.65958 70.582558,204.18795 C 71.362151,200.71632 72,196.41449 72,194.62834 C 72,190.93036 68.19116,174.92968 67.009812,173.6649 C 65.526394,172.07671 54.883357,178.63676 36.777669,192.29907 C 30.330386,197.16411 23.059492,203.36445 20.620125,206.07762 C 8.2175364,219.87228 2.1174965,241.23246 8.4361128,248.7417 C 13.528062,254.79314 23.952447,259.85617 34.5,261.4007 C 38.585447,261.99896 62.253982,261.14352 74.5,259.95501 z M 104.5,161.36102 C 194.02504,151.34282 238.96708,139.57805 282.57098,114.74622 C 291.88194,109.44375 301.65823,104.15143 304.29607,102.98551 C 309.80024,100.55267 309.80223,101.5954 304.26653,87.5 C 295.40355,64.93242 285.10251,46.693331 274.98862,35.660342 L 269.63543,29.820684 L 267.84009,33.320161 C 265.37802,38.119232 261.69017,40.773957 256.37915,41.570393 C 253.91511,41.939899 243.45508,41.824444 233.13464,41.313825 C 210.14771,40.176513 201.22698,40.898065 182.8122,45.384148 C 157.45147,51.562351 135.96683,59.616617 85.527197,81.85482 C 69.700234,88.83273 68.061634,89.145158 68.015313,85.19377 C 68.006891,84.475343 69.9125,83.054316 72.25,82.035932 C 74.5875,81.017549 86.4,75.815567 98.5,70.475972 C 110.6,65.136378 125.225,58.980934 131,56.797209 C 138.32541,54.027218 143.16288,51.458241 147,48.300273 C 161.13587,36.666389 178.79931,31.667274 197.5,34.007742 C 202.45,34.627255 210.325,35.294182 215,35.489803 C 219.675,35.685423 230.47625,36.157765 239.00279,36.53945 C 256.56527,37.325625 261.15588,36.350405 263.02418,31.436398 C 263.77577,29.45956 264.54526,28.909327 266.0192,29.29477 C 269.32502,30.159261 267.34047,28.335119 257.54555,21.50604 C 245.2489,12.932743 236.97218,9.1724136 226.27667,7.2997766 C 215.2362,5.36674 207.07463,6.4356371 193.82607,11.549743 C 188.69673,13.529728 173.7,19.113009 160.5,23.957034 C 117.18099,39.853879 101.68744,47.045371 82.012354,60.387882 C 54.381536,79.125514 48.153859,91.078258 52.50049,117.02983 C 54.980409,131.8362 60.494247,147.70083 67.534963,160.28761 L 70.213026,165.07521 L 76.356513,164.44906 C 79.735431,164.10467 92.4,162.71506 104.5,161.36102 z M 169,43.765974 C 173.675,42.375047 180.12241,40.693601 183.32759,40.029428 C 192.55123,38.118113 189.16772,37.692771 178.84675,39.466142 C 173.20026,40.436333 167.12468,42.252118 163.5,44.052761 C 156.84734,47.357627 156.9454,47.352514 169,43.765974 z "
       style="fill:#c6a587;stroke:none;stroke-opacity:1;fill-opacity:1"
       id="path2034" />
    <path
       id="path2032"
       d="M 44.328737,237.54224 C 37.422497,234.53807 37.211959,225.64309 43.903752,219.5871 C 46.728267,217.03095 47.882639,218.41342 45.295573,221.25394 C 39.934791,227.13992 39.55849,232.11768 44.25,235.08493 C 47.089885,236.88108 48.541061,237.06777 55.75,236.5644 C 64.084641,235.98242 67.17366,237.21374 60.25,238.35815 C 54.209291,239.35662 47.737328,239.02495 44.328737,237.54224 z "
       style="fill:black;stroke:none;stroke-opacity:1" />
    <path
       id="path2030"
       d="M 92.5,213.97705 C 134.31761,209.30025 199.71463,190.82137 257.16738,167.44787 C 278.49061,158.77295 291.50649,152.19392 302.3609,144.60427 C 314.42114,136.17149 316.46418,133.90929 316.26288,129.21102 C 316.11094,125.66462 311.4383,108.10496 310.35946,107.02613 C 309.7074,106.37407 294.15833,114.43774 279.0753,123.24994 C 268.41961,129.47549 250.45397,137.20986 232,143.5163 C 224.3497,146.1307 203.87325,151.80934 199.12625,152.63302 C 197.68181,152.88365 191.1,154.1557 184.5,155.45978 C 177.9,156.76387 167.55,158.58139 161.5,159.49872 C 155.45,160.41606 149.375,161.35843 148,161.59289 C 145.56964,162.0073 131.22451,163.97344 116,165.9788 C 106.19218,167.27068 102.09193,167.69922 86.5,169.06198 C 79.35,169.68691 73.328061,170.36305 73.117913,170.56452 C 72.907766,170.766 73.920266,175.6577 75.367913,181.43498 C 78.391975,193.50341 78.537711,196.40825 76.5,204 C 75.688056,207.025 75.018397,210.7375 75.011869,212.25 C 75.000769,214.82177 75.275451,214.99947 79.25,214.9918 C 81.5875,214.98728 87.55,214.53065 92.5,213.97705 z "
       style="fill:#854200;stroke:none;stroke-opacity:1;fill-opacity:1" />
    <path
       id="path2026"
       d="M 229.5,89.073078 C 205.85322,83.606009 193.29663,78.73515 189.1016,73.402033 C 187.85733,71.820207 187,69.273628 187,67.159557 C 187,62.609379 193.81798,47.808874 195.729,48.210605 C 197.4395,48.570183 197.32333,49.083898 193.85443,56.5 C 189.57267,65.653887 189.34633,68.069706 192.42737,71.731312 C 196.70543,76.815506 215.10091,83.123398 239,87.701278 C 241.75243,88.228507 243.5,89.101133 243.5,89.948294 C 243.5,92.108073 242.30387,92.033296 229.5,89.073078 z "
       style="fill:black;stroke:none;stroke-opacity:1" />
    <path
       id="path2024"
       d="M 258.0214,84.75 C 258.03317,84.0625 260.05817,80.388834 262.5214,76.586298 C 264.98463,72.783762 267,69.049775 267,68.288549 C 267,66.01116 262.30611,62.357953 254.93845,58.90116 C 248.59564,55.925211 246.30119,54 249.0973,54 C 251.49493,54 266.24641,62.446441 267.68604,64.643584 C 269.69077,67.703194 268.95243,70.377808 263.7291,78.977527 C 259.6512,85.691411 257.97629,87.385328 258.0214,84.75 z "
       style="fill:black;stroke:none;stroke-opacity:1" />
  </g>
</svg>
